<?xml version="1.0" encoding="UTF-8" standalone="no"?>
<!-- Generated by IcoMoon.io -->

<svg
   xmlns:dc="http://purl.org/dc/elements/1.1/"
   xmlns:cc="http://creativecommons.org/ns#"
   xmlns:rdf="http://www.w3.org/1999/02/22-rdf-syntax-ns#"
   xmlns:svg="http://www.w3.org/2000/svg"
   xmlns="http://www.w3.org/2000/svg"
   xmlns:sodipodi="http://sodipodi.sourceforge.net/DTD/sodipodi-0.dtd"
   xmlns:inkscape="http://www.inkscape.org/namespaces/inkscape"
   version="1.1"
   width="32"
   height="32"
   viewBox="0 0 32 32"
   id="svg2"
   inkscape:version="0.91 r13725"
   sodipodi:docname="circle-left-black.svg">
  <metadata
     id="metadata14">
    <rdf:RDF>
      <cc:Work
         rdf:about="">
        <dc:format>image/svg+xml</dc:format>
        <dc:type
           rdf:resource="http://purl.org/dc/dcmitype/StillImage" />
        <dc:title>circle-right</dc:title>
      </cc:Work>
    </rdf:RDF>
  </metadata>
  <defs
     id="defs12" />
  <sodipodi:namedview
     pagecolor="#ffffff"
     bordercolor="#666666"
     borderopacity="1"
     objecttolerance="10"
     gridtolerance="10"
     guidetolerance="10"
     inkscape:pageopacity="0"
     inkscape:pageshadow="2"
     inkscape:window-width="1360"
     inkscape:window-height="721"
     id="namedview10"
     showgrid="false"
     inkscape:zoom="10.429825"
     inkscape:cx="16"
     inkscape:cy="15.728814"
     inkscape:window-x="0"
     inkscape:window-y="0"
     inkscape:window-maximized="1"
     inkscape:current-layer="svg2" />
  <title
     id="title4">circle-right</title>
  <path
     style="opacity:1;fill:#000000;fill-opacity:1;fill-rule:nonzero;stroke:none;stroke-width:0.2;stroke-linecap:round;stroke-linejoin:round;stroke-miterlimit:4;stroke-dasharray:none;stroke-opacity:1"
     d="m 32,0 0,32.068359 -32,0 L 0,0 32,0 Z M 16,0.33984375 C 7.350225,0.33984375 0.339844,7.3502246 0.339844,16 0.339844,24.649775 7.350225,31.660156 16,31.660156 24.649775,31.660156 31.660156,24.649775 31.660156,16 31.660156,7.3502246 24.649775,0.33984375 16,0.33984375 Z m 0,2.93554685 c 7.027881,0 12.724609,5.696728 12.724609,12.7246094 0,7.027881 -5.696728,12.724609 -12.724609,12.724609 C 8.972119,28.724609 3.275391,23.027881 3.275391,16 3.275391,8.9721186 8.972119,3.2753906 16,3.2753906 Z m 2.041016,4.0019532 -8.72461,8.7246092 8.72461,8.722656 2.769531,-2.767578 -5.958985,-5.955078 5.957032,-5.958984 -2.767578,-2.7656252 z"
     id="rect4146"
     inkscape:connector-curvature="0" />
</svg>
