<?xml version="1.0" encoding="UTF-8" standalone="no"?>
<!-- Generated by IcoMoon.io -->

<svg
   xmlns:dc="http://purl.org/dc/elements/1.1/"
   xmlns:cc="http://creativecommons.org/ns#"
   xmlns:rdf="http://www.w3.org/1999/02/22-rdf-syntax-ns#"
   xmlns:svg="http://www.w3.org/2000/svg"
   xmlns="http://www.w3.org/2000/svg"
   xmlns:sodipodi="http://sodipodi.sourceforge.net/DTD/sodipodi-0.dtd"
   xmlns:inkscape="http://www.inkscape.org/namespaces/inkscape"
   version="1.1"
   width="32"
   height="32"
   viewBox="0 0 32 32"
   id="svg2"
   inkscape:version="0.91 r13725"
   sodipodi:docname="circle-right-black.svg">
  <metadata
     id="metadata14">
    <rdf:RDF>
      <cc:Work
         rdf:about="">
        <dc:format>image/svg+xml</dc:format>
        <dc:type
           rdf:resource="http://purl.org/dc/dcmitype/StillImage" />
        <dc:title>circle-right</dc:title>
      </cc:Work>
    </rdf:RDF>
  </metadata>
  <defs
     id="defs12" />
  <sodipodi:namedview
     pagecolor="#ffffff"
     bordercolor="#666666"
     borderopacity="1"
     objecttolerance="10"
     gridtolerance="10"
     guidetolerance="10"
     inkscape:pageopacity="0"
     inkscape:pageshadow="2"
     inkscape:window-width="1360"
     inkscape:window-height="721"
     id="namedview10"
     showgrid="false"
     inkscape:zoom="10.429825"
     inkscape:cx="16"
     inkscape:cy="15.728814"
     inkscape:window-x="0"
     inkscape:window-y="0"
     inkscape:window-maximized="1"
     inkscape:current-layer="svg2" />
  <title
     id="title4">circle-right</title>
  <path
     style="opacity:1;fill:#000000;fill-opacity:1;fill-rule:nonzero;stroke:none;stroke-width:0.2;stroke-linecap:round;stroke-linejoin:round;stroke-miterlimit:4;stroke-dasharray:none;stroke-opacity:1"
     d="M 0 0 L 0 32.068359 L 32 32.068359 L 32 0 L 0 0 z M 16 0.33984375 C 24.649775 0.33984375 31.660156 7.3502246 31.660156 16 C 31.660156 24.649775 24.649775 31.660156 16 31.660156 C 7.3502246 31.660156 0.33984375 24.649775 0.33984375 16 C 0.33984375 7.3502246 7.3502246 0.33984375 16 0.33984375 z M 16 3.2753906 C 8.9721186 3.2753906 3.2753906 8.9721186 3.2753906 16 C 3.2753906 23.027881 8.9721186 28.724609 16 28.724609 C 23.027881 28.724609 28.724609 23.027881 28.724609 16 C 28.724609 8.9721186 23.027881 3.2753906 16 3.2753906 z M 13.958984 7.2773438 L 22.683594 16.001953 L 13.958984 24.724609 L 11.189453 21.957031 L 17.148438 16.001953 L 11.191406 10.042969 L 13.958984 7.2773438 z "
     id="rect4146" />
</svg>
