<?xml version="1.0" encoding="UTF-8" standalone="no"?>
<!-- Generated by IcoMoon.io -->

<svg
   xmlns:dc="http://purl.org/dc/elements/1.1/"
   xmlns:cc="http://creativecommons.org/ns#"
   xmlns:rdf="http://www.w3.org/1999/02/22-rdf-syntax-ns#"
   xmlns:svg="http://www.w3.org/2000/svg"
   xmlns="http://www.w3.org/2000/svg"
   xmlns:sodipodi="http://sodipodi.sourceforge.net/DTD/sodipodi-0.dtd"
   xmlns:inkscape="http://www.inkscape.org/namespaces/inkscape"
   version="1.1"
   width="32"
   height="32"
   viewBox="0 0 32 32"
   id="svg2"
   inkscape:version="0.91 r13725"
   sodipodi:docname="user-round-charcoal.svg">
  <metadata
     id="metadata12">
    <rdf:RDF>
      <cc:Work
         rdf:about="">
        <dc:format>image/svg+xml</dc:format>
        <dc:type
           rdf:resource="http://purl.org/dc/dcmitype/StillImage" />
        <dc:title>user</dc:title>
      </cc:Work>
    </rdf:RDF>
  </metadata>
  <defs
     id="defs10" />
  <sodipodi:namedview
     pagecolor="#ffffff"
     bordercolor="#666666"
     borderopacity="1"
     objecttolerance="10"
     gridtolerance="10"
     guidetolerance="10"
     inkscape:pageopacity="0"
     inkscape:pageshadow="2"
     inkscape:window-width="1360"
     inkscape:window-height="721"
     id="namedview8"
     showgrid="false"
     inkscape:snap-intersection-paths="false"
     inkscape:object-nodes="false"
     inkscape:snap-bbox="true"
     inkscape:bbox-nodes="true"
     inkscape:bbox-paths="true"
     inkscape:zoom="14.75"
     inkscape:cx="16"
     inkscape:cy="15.762712"
     inkscape:window-x="0"
     inkscape:window-y="0"
     inkscape:window-maximized="1"
     inkscape:current-layer="svg2" />
  <title
     id="title4">user</title>
  <path
     style="opacity:1;fill:#3b3b3b;fill-opacity:1;fill-rule:nonzero;stroke:none;stroke-width:1;stroke-linecap:round;stroke-linejoin:round;stroke-miterlimit:4;stroke-dasharray:none;stroke-opacity:1"
     d="M 16.033203 0 C 7.1504244 7.1054274e-15 0 7.1504244 0 16.033203 C 0 24.915982 7.1504244 32.068359 16.033203 32.068359 C 24.915983 32.068359 32.068359 24.915982 32.068359 16.033203 C 32.068359 7.1504244 24.915983 0 16.033203 0 z M 16 4.7148438 C 21.671031 4.7148438 21.671875 8.5222544 21.671875 13.220703 C 21.671875 16.14601 19.972838 19.073136 17.890625 20.246094 L 17.890625 21.802734 C 22.162742 22.151607 25.768508 23.672375 27.705078 25.771484 C 26.530481 27.187212 25.097959 28.377332 23.484375 29.287109 L 8.5820312 29.287109 C 6.9549814 28.369779 5.5102214 27.169457 4.3300781 25.738281 C 4.3300781 25.738281 4.3300781 25.736328 4.3300781 25.736328 C 6.2744418 23.655668 9.8630895 22.150283 14.111328 21.802734 L 14.111328 20.246094 C 12.029114 19.073136 10.330078 16.146955 10.330078 13.220703 C 10.330078 8.5222544 10.328969 4.7148438 16 4.7148438 z "
     id="rect4142" />
</svg>
